<svg xmlns="http://www.w3.org/2000/svg" viewBox="0 0 960 380" width="960" height="380">
  <style>
    text { font-family: ui-monospace, SFMono-Regular, Menlo, Consolas, monospace; }
    .nm { font-size: 13px; font-weight: 600; fill: #18181b; }
    .dt { font-size: 11px; fill: #64748b; }
    .al { font-size: 11px; fill: #64748b; }
  </style>
  <defs>
    <marker id="arr-main-light" markerWidth="8" markerHeight="6" refX="7" refY="3" orient="auto">
      <polygon points="0 0, 8 3, 0 6" fill="#18181b"/>
    </marker>
    <marker id="arr-sec-light" markerWidth="8" markerHeight="6" refX="7" refY="3" orient="auto">
      <polygon points="0 0, 8 3, 0 6" fill="#64748b"/>
    </marker>
    <marker id="arr-acc-light" markerWidth="8" markerHeight="6" refX="7" refY="3" orient="auto-start-reverse">
      <polygon points="0 0, 8 3, 0 6" fill="#2563eb"/>
    </marker>
  </defs>
  <rect width="960" height="380" fill="#ffffff"/>
  <path d="M 250 90 H 310 V 170 H 370" fill="none" stroke="#18181b" stroke-width="1.5"  marker-end="url(#arr-main-light)"/>
  <path d="M 250 190 H 370" fill="none" stroke="#18181b" stroke-width="1.5"  marker-end="url(#arr-main-light)"/>
  <path d="M 250 290 H 310 V 210 H 370" fill="none" stroke="#18181b" stroke-width="1.5"  marker-end="url(#arr-main-light)"/>
  <path d="M 590 170 H 650 V 110 H 710" fill="none" stroke="#18181b" stroke-width="1.5"  marker-end="url(#arr-main-light)"/>
  <path d="M 590 190 H 710" fill="none" stroke="#18181b" stroke-width="1.5"  marker-end="url(#arr-main-light)"/>
  <path d="M 810 140 V 180" fill="none" stroke="#64748b" stroke-width="1.5" stroke-dasharray="4 3" marker-end="url(#arr-sec-light)"/>
  <path d="M 810 240 V 280" fill="none" stroke="#18181b" stroke-width="1.5"  marker-end="url(#arr-main-light)"/>
  <rect x="50" y="60" width="200" height="60" rx="6" fill="#f4f6f8" stroke="#e2e8f0" stroke-width="1.0"/>
  <text x="64" y="86" class="nm">Giỏ hàng Mini App</text>
  <text x="64" y="104" class="dt">Product ID và Toppings</text>
  <rect x="50" y="160" width="200" height="60" rx="6" fill="#f4f6f8" stroke="#e2e8f0" stroke-width="1.0"/>
  <text x="64" y="186" class="nm">Địa chỉ GPS</text>
  <text x="64" y="204" class="dt">Tọa độ và Số điện thoại</text>
  <rect x="50" y="260" width="200" height="60" rx="6" fill="#f4f6f8" stroke="#e2e8f0" stroke-width="1.0"/>
  <text x="64" y="286" class="nm">Mã Voucher</text>
  <text x="64" y="304" class="dt">Chiết khấu khuyến mãi</text>
  <rect x="370" y="150" width="220" height="80" rx="6" fill="#ffffff" stroke="#18181b" stroke-width="1.5"/>
  <text x="384" y="176" class="nm">transaction.atomic()</text>
  <text x="384" y="194" class="dt">Khóa toàn vẹn giao dịch DB</text>
  <rect x="710" y="80" width="200" height="60" rx="6" fill="#f4f6f8" stroke="#e2e8f0" stroke-width="1.0"/>
  <text x="724" y="106" class="nm">Snapshot Đơn Giá</text>
  <text x="724" y="124" class="dt">Tên món, Giá gốc, Topping</text>
  <rect x="710" y="180" width="200" height="60" rx="6" fill="#f4f6f8" stroke="#e2e8f0" stroke-width="1.0"/>
  <text x="724" y="206" class="nm">Snapshot Địa Chỉ</text>
  <text x="724" y="224" class="dt">Tên nhận hàng và GPS</text>
  <rect x="710" y="280" width="200" height="60" rx="6" fill="#ffffff" stroke="#18181b" stroke-width="1.5"/>
  <text x="724" y="306" class="nm">Đơn Hàng Bất Biến</text>
  <text x="724" y="324" class="dt">Status PENDING</text>
</svg>