<svg xmlns="http://www.w3.org/2000/svg" viewBox="0 0 960 260" width="960" height="260">
  <style>
    text { font-family: ui-monospace, SFMono-Regular, Menlo, Consolas, monospace; }
    .nm { font-size: 13px; font-weight: 600; fill: #18181b; }
    .dt { font-size: 11px; fill: #64748b; }
    .al { font-size: 11px; fill: #64748b; }
  </style>
  <defs>
    <marker id="arr-main-light" markerWidth="8" markerHeight="6" refX="7" refY="3" orient="auto">
      <polygon points="0 0, 8 3, 0 6" fill="#18181b"/>
    </marker>
    <marker id="arr-sec-light" markerWidth="8" markerHeight="6" refX="7" refY="3" orient="auto">
      <polygon points="0 0, 8 3, 0 6" fill="#64748b"/>
    </marker>
    <marker id="arr-acc-light" markerWidth="8" markerHeight="6" refX="7" refY="3" orient="auto-start-reverse">
      <polygon points="0 0, 8 3, 0 6" fill="#2563eb"/>
    </marker>
  </defs>
  <rect width="960" height="260" fill="#ffffff"/>
  <path d="M 290 82 H 360" fill="none" stroke="#18181b" stroke-width="1.5"  marker-end="url(#arr-main-light)"/>
  <path d="M 600 82 H 670" fill="none" stroke="#18181b" stroke-width="1.5"  marker-end="url(#arr-main-light)"/>
  <path d="M 790 114 V 155" fill="none" stroke="#18181b" stroke-width="1.5"  marker-end="url(#arr-main-light)"/>
  <path d="M 670 187 H 600" fill="none" stroke="#18181b" stroke-width="1.5"  marker-end="url(#arr-main-light)"/>
  <path d="M 360 187 H 290" fill="none" stroke="#18181b" stroke-width="1.5"  marker-end="url(#arr-main-light)"/>
  <rect x="50" y="50" width="240" height="64" rx="6" fill="#ffffff" stroke="#18181b" stroke-width="1.5"/>
  <text x="64" y="76" class="nm">Day Shift (Người)</text>
  <text x="64" y="94" class="dt">Phỏng vấn và Lập RFCs</text>
  <rect x="360" y="50" width="240" height="64" rx="6" fill="#ffffff" stroke="#18181b" stroke-width="1.5"/>
  <text x="374" y="76" class="nm">Backlog Đặc tả</text>
  <text x="374" y="94" class="dt">Đóng gói task chuẩn ACI</text>
  <rect x="670" y="50" width="240" height="64" rx="6" fill="#ffffff" stroke="#18181b" stroke-width="1.5"/>
  <text x="684" y="76" class="nm">Night Shift (AI)</text>
  <text x="684" y="94" class="dt">Chạy ngầm đa tác nhân</text>
  <rect x="670" y="155" width="240" height="64" rx="6" fill="#f4f6f8" stroke="#e2e8f0" stroke-width="1.0"/>
  <text x="684" y="181" class="nm">Git Worktrees</text>
  <text x="684" y="199" class="dt">Sandbox Docker cô lập</text>
  <rect x="360" y="155" width="240" height="64" rx="6" fill="#ffffff" stroke="#18181b" stroke-width="1.5"/>
  <text x="374" y="181" class="nm">Merger Agent</text>
  <text x="374" y="199" class="dt">Giải quyết xung đột và Test</text>
  <rect x="50" y="155" width="240" height="64" rx="6" fill="#ffffff" stroke="#18181b" stroke-width="1.5"/>
  <text x="64" y="181" class="nm">Nghiệm thu sáng</text>
  <text x="64" y="199" class="dt">Review PR sẵn sàng</text>
</svg>