<svg xmlns="http://www.w3.org/2000/svg" viewBox="0 0 960 380" width="960" height="380">
  <style>
    text { font-family: ui-monospace, SFMono-Regular, Menlo, Consolas, monospace; }
    .nm { font-size: 13px; font-weight: 600; fill: #18181b; }
    .dt { font-size: 11px; fill: #64748b; }
    .al { font-size: 11px; fill: #64748b; }
  </style>
  <defs>
    <marker id="arr-main-light" markerWidth="8" markerHeight="6" refX="7" refY="3" orient="auto">
      <polygon points="0 0, 8 3, 0 6" fill="#18181b"/>
    </marker>
    <marker id="arr-sec-light" markerWidth="8" markerHeight="6" refX="7" refY="3" orient="auto">
      <polygon points="0 0, 8 3, 0 6" fill="#64748b"/>
    </marker>
    <marker id="arr-acc-light" markerWidth="8" markerHeight="6" refX="7" refY="3" orient="auto-start-reverse">
      <polygon points="0 0, 8 3, 0 6" fill="#2563eb"/>
    </marker>
  </defs>
  <rect width="960" height="380" fill="#ffffff"/>
  <path d="M 370 82 H 160 V 180" fill="none" stroke="#18181b" stroke-width="1.5"  marker-end="url(#arr-main-light)"/>
  <path d="M 480 114 V 180" fill="none" stroke="#18181b" stroke-width="1.5"  marker-end="url(#arr-main-light)"/>
  <path d="M 590 82 H 800 V 180" fill="none" stroke="#18181b" stroke-width="1.5"  marker-end="url(#arr-main-light)"/>
  <path d="M 160 244 V 270 H 330 V 290" fill="none" stroke="#64748b" stroke-width="1.5" stroke-dasharray="4 3" marker-end="url(#arr-sec-light)"/>
  <path d="M 480 244 V 270 H 330 V 290" fill="none" stroke="#64748b" stroke-width="1.5" stroke-dasharray="4 3" marker-end="url(#arr-sec-light)"/>
  <path d="M 800 244 V 270 H 650 V 290" fill="none" stroke="#64748b" stroke-width="1.5" stroke-dasharray="4 3" marker-end="url(#arr-sec-light)"/>
  <path d="M 450 320 H 530" fill="none" stroke="#2563eb" stroke-width="1.5" stroke-dasharray="4 3" marker-start="url(#arr-acc-light)" marker-end="url(#arr-acc-light)"/>
  <text x="490" y="310" text-anchor="middle" class="al">sync</text>
  <rect x="370" y="50" width="220" height="64" rx="6" fill="#ffffff" stroke="#18181b" stroke-width="1.5"/>
  <text x="384" y="76" class="nm">Supervisor Agent</text>
  <text x="384" y="94" class="dt">Phân tích và Điều phối</text>
  <rect x="50" y="180" width="220" height="64" rx="6" fill="#f4f6f8" stroke="#e2e8f0" stroke-width="1.0"/>
  <text x="64" y="206" class="nm">Research Agent</text>
  <text x="64" y="224" class="dt">Quét tài liệu và Khảo sát</text>
  <rect x="370" y="180" width="220" height="64" rx="6" fill="#ffffff" stroke="#18181b" stroke-width="1.5"/>
  <text x="384" y="206" class="nm">Coder Agent</text>
  <text x="384" y="224" class="dt">Viết mã và Implement</text>
  <rect x="690" y="180" width="220" height="64" rx="6" fill="#f4f6f8" stroke="#e2e8f0" stroke-width="1.0"/>
  <text x="704" y="206" class="nm">Reviewer Agent</text>
  <text x="704" y="224" class="dt">Thẩm định chất lượng</text>
  <rect x="210" y="290" width="240" height="60" rx="6" fill="#ffffff" stroke="#18181b" stroke-width="1.5"/>
  <text x="224" y="316" class="nm">Shared State Storage</text>
  <text x="224" y="334" class="dt">Bộ nhớ trạng thái chung</text>
  <rect x="530" y="290" width="240" height="60" rx="6" fill="#f4f6f8" stroke="#e2e8f0" stroke-width="1.0"/>
  <text x="544" y="316" class="nm">Durable Checkpoint</text>
  <text x="544" y="334" class="dt">Điểm khôi phục phiên</text>
</svg>